<?xml version="1.0" encoding="utf-8"?>
<!-- Generator: Adobe Illustrator 19.0.0, SVG Export Plug-In . SVG Version: 6.00 Build 0)  -->
<svg version="1.1" id="Layer_1" xmlns="http://www.w3.org/2000/svg" xmlns:xlink="http://www.w3.org/1999/xlink" x="0px" y="0px"
	 viewBox="0 0 16 16" style="enable-background:new 0 0 16 16;" xml:space="preserve">
<style type="text/css">
	.st0{fill:#BB4B42;}
	.st1{fill:#4660AC;}
</style>
<g id="XMLID_2_">
	<g id="XMLID_60_">
		<path id="XMLID_64_" class="st0" d="M6.7,8.3c1.2,0.2,3.1,0.1,4.1,1.1c0.9,1,0.3,2.2-0.8,2.5c-1.4,0.5-3.8,0.2-4.1-1.5
			c-0.2-0.9-1.7-0.5-1.4,0.4c0.6,2.9,4.9,3.5,7.1,2c1.3-0.9,1.6-2.5,0.9-3.9c-1.1-2-3.6-1.9-5.6-2.1C5.7,6.7,5.8,8.2,6.7,8.3
			L6.7,8.3z"/>
	</g>
</g>
<g id="XMLID_1_">
	<g id="XMLID_44_">
		<path id="XMLID_58_" class="st1" d="M10.8,3c0.4,0-0.3,0-0.4-0.1c-0.4-0.1-0.7-0.2-1.1-0.3C8.6,2.5,7.7,2.5,6.9,2.6
			C5.3,2.8,4.4,3.6,4,5.1C3.6,6.5,4.1,7.8,5.4,8.5c1.2,0.6,3.1,0.5,4.4,0.3c1-0.2,0.5-1.6-0.4-1.4C8.5,7.4,7.1,7.5,6.2,7.2
			c-1-0.4-1-1.8-0.3-2.6C6.5,3.8,8.1,3.9,9,4.1c0.8,0.1,1.3,0.4,1.8,0.4C11.8,4.6,11.8,3.1,10.8,3L10.8,3z"/>
	</g>
</g>
<g id="XMLID_3_">
	<g id="XMLID_26_">
		<path id="XMLID_30_" class="st0" d="M7,1.1c0,2.2,0.2,4.3,0.2,6.5c0,1,1.5,1,1.5,0c0-2.2-0.2-4.3-0.2-6.5C8.5,0.2,7,0.2,7,1.1
			L7,1.1z"/>
	</g>
</g>
<g id="XMLID_4_">
	<g id="XMLID_32_">
		<path id="XMLID_42_" class="st1" d="M6.9,8.1C7.2,9,7.1,10,7.1,10.9c0.1,1.4,0.2,2.7,0.2,4.1c0,1,1.5,1,1.5,0
			c0-1.6-0.2-3.1-0.3-4.6c0-0.7,0-1.3-0.1-2c0-0.2-0.1-0.4-0.1-0.5c0.1,0.4,0,0,0-0.2C8.1,6.8,6.7,7.2,6.9,8.1L6.9,8.1z"/>
	</g>
</g>
</svg>
